<svg width="130" height="130" viewBox="0 0 130 130" fill="none" xmlns="http://www.w3.org/2000/svg">
<g filter="url(#filter0_d_1469_299)">
<rect x="8" y="8" width="114" height="114" rx="5" fill="white"/>
</g>
<path d="M96 47.8216L91.5221 47.8216C90.9341 47.8216 90.3518 47.9311 89.8084 48.1437C89.2654 48.3564 88.7717 48.668 88.3556 49.0609C87.9399 49.4541 87.6101 49.9206 87.3851 50.4337C87.1601 50.9472 87.0443 51.4975 87.0443 52.0532L87.0443 68.9805C87.0443 74.5919 84.6855 79.9735 80.4867 83.9414C76.2879 87.9093 70.5934 90.1384 64.6554 90.1385C61.7152 90.1385 58.8038 89.5912 56.0875 88.5279C53.3711 87.4646 50.9029 85.9061 48.8239 83.9414C46.7449 81.9767 45.0958 79.6443 43.9706 77.0773C42.8455 74.5103 42.2664 71.759 42.2665 68.9805L42.2665 52.0545C42.2666 51.4988 42.151 50.9482 41.926 50.4347C41.7011 49.9212 41.3712 49.4544 40.9554 49.0615C40.5396 48.6683 40.0459 48.3567 39.5025 48.1437C38.9592 47.9311 38.3768 47.8216 37.7886 47.8216L33.3108 47.8216L33.3108 68.9796C33.3108 72.8694 34.1215 76.7212 35.6968 80.3149C37.272 83.9087 39.5808 87.174 42.4914 89.9245C45.402 92.6751 48.8575 94.8569 52.6604 96.3455C56.4632 97.834 60.5392 98.6001 64.6554 98.6001C72.9683 98.6001 80.941 95.4794 86.8193 89.9245C92.6975 84.3696 96 76.8355 96 68.9796L96 47.8216Z" fill="url(#paint0_linear_1469_299)"/>
<path d="M64.6554 81.6758C68.2181 81.6758 71.6348 80.3384 74.1538 77.9577C76.6731 75.5771 78.0882 72.3483 78.0882 68.9816L78.0882 47.8221C78.0882 45.5774 79.0319 43.4251 80.7113 41.838C82.3908 40.251 84.6687 39.3592 87.0439 39.3592L95.9996 39.3592L95.9996 30.896L87.0443 30.896C82.2941 30.896 77.7383 32.6792 74.3791 35.8534C71.0202 39.0279 69.1332 43.3331 69.1332 47.8221L69.1332 68.981C69.1332 70.1033 68.6614 71.1796 67.8218 71.9732C66.9819 72.7668 65.843 73.2126 64.6554 73.2126C63.4678 73.2126 62.3288 72.7668 61.489 71.9732C60.6493 71.1796 60.1775 70.1033 60.1775 68.981L60.1775 47.8221C60.1775 43.3331 58.2905 39.0279 54.9315 35.8534C51.5725 32.6792 47.0168 30.896 42.2665 30.896L33.3108 30.896L33.3108 39.3605L42.2665 39.3605C44.6413 39.3605 46.919 40.2519 48.5984 41.8387C50.2778 43.4254 51.2215 45.5777 51.2218 47.8221L51.2218 68.981C51.2217 70.6481 51.5691 72.2989 52.2442 73.8392C52.9193 75.3794 53.9088 76.7789 55.1562 77.9577C56.4037 79.1366 57.8846 80.0717 59.5145 80.7096C61.1444 81.3475 62.8912 81.6758 64.6554 81.6758Z" fill="url(#paint1_linear_1469_299)"/>
<defs>
<filter id="filter0_d_1469_299" x="0" y="0" width="130" height="130" filterUnits="userSpaceOnUse" color-interpolation-filters="sRGB">
<feFlood flood-opacity="0" result="BackgroundImageFix"/>
<feColorMatrix in="SourceAlpha" type="matrix" values="0 0 0 0 0 0 0 0 0 0 0 0 0 0 0 0 0 0 127 0" result="hardAlpha"/>
<feOffset/>
<feGaussianBlur stdDeviation="4"/>
<feComposite in2="hardAlpha" operator="out"/>
<feColorMatrix type="matrix" values="0 0 0 0 0.546117 0 0 0 0 0.546117 0 0 0 0 0.546117 0 0 0 0.25 0"/>
<feBlend mode="normal" in2="BackgroundImageFix" result="effect1_dropShadow_1469_299"/>
<feBlend mode="normal" in="SourceGraphic" in2="effect1_dropShadow_1469_299" result="shape"/>
</filter>
<linearGradient id="paint0_linear_1469_299" x1="64.6554" y1="90.9326" x2="64.6554" y2="25.7836" gradientUnits="userSpaceOnUse">
<stop stop-color="#F54A48"/>
<stop offset="1" stop-color="#FA982F"/>
</linearGradient>
<linearGradient id="paint1_linear_1469_299" x1="64.6552" y1="90.9685" x2="64.6552" y2="25.7672" gradientUnits="userSpaceOnUse">
<stop stop-color="#F54A48"/>
<stop offset="1" stop-color="#FA982F"/>
</linearGradient>
</defs>
</svg>
